PathFileType  4	(X/Y/Z) C:\Users\antoi\Documents\MyRepositories\mobilecap\ResultsAnalysis
DataRate	CameraRate	NumFrames	NumMarkers	Units	OrigDataRate	OrigDataStartFrame	OrigNumFrames
100.0	100.0	6	51	mm	100.0	123	163
Frame#	Time	r_knee			r_shank_antsup			r_ankle			r_calc			r_5meta			r_toe			L_knee			L_shank_antsup			L_ankle			L_calc			L_5meta			L_toe			r_sh2			r_sh3			r_sh4			L_sh2			L_sh3			r_thigh1			r_thigh2			r_thigh3			r_thigh4			r_thigh5			L_thigh1			L_thigh2			L_thigh3			L_thigh4			r.ASIS			r.PSIS			L.ASIS			L.PSIS			C7			R_Shoulder			L_Shoulder			R_Sternum			L_Sternum			R_humerus			R_elbow_med			R_elbow_lat			R_forearm			R_wrist_radius			R_wrist_ulna			L_humerus			L_elbow_med			L_elbow_lat			L_forearm			L_wrist_radius			L_wrist_ulna			R_HJC			L_HJC			R_HJC_reg			L_HJC_reg			
		X1	Y1	Z1	X2	Y2	Z2	X3	Y3	Z3	X4	Y4	Z4	X5	Y5	Z5	X6	Y6	Z6	X7	Y7	Z7	X8	Y8	Z8	X9	Y9	Z9	X10	Y10	Z10	X11	Y11	Z11	X12	Y12	Z12	X13	Y13	Z13	X14	Y14	Z14	X15	Y15	Z15	X16	Y16	Z16	X17	Y17	Z17	X18	Y18	Z18	X19	Y19	Z19	X20	Y20	Z20	X21	Y21	Z21	X22	Y22	Z22	X23	Y23	Z23	X24	Y24	Z24	X25	Y25	Z25	X26	Y26	Z26	X27	Y27	Z27	X28	Y28	Z28	X29	Y29	Z29	X30	Y30	Z30	X31	Y31	Z31	X32	Y32	Z32	X33	Y33	Z33	X34	Y34	Z34	X35	Y35	Z35	X36	Y36	Z36	X37	Y37	Z37	X38	Y38	Z38	X39	Y39	Z39	X40	Y40	Z40	X41	Y41	Z41	X42	Y42	Z42	X43	Y43	Z43	X44	Y44	Z44	X45	Y45	Z45	X46	Y46	Z46	X47	Y47	Z47	X48	Y48	Z48	X49	Y49	Z49	X50	Y50	Z50	X51	Y51	Z51	

123	1.22000000	1221.05322	571.22936	-169.81844	1272.13935	458.92238	-174.74209	1249.76313	112.99316	-206.42421	1210.60641	75.49998	-274.61963	1380.28295	57.31433	-131.98886	1426.57306	103.86282	-183.38267	982.10284	554.73848	-505.68219	996.87276	444.97575	-493.65647	844.84639	121.58900	-485.49514	783.32105	96.70512	-431.39035	970.97985	33.90966	-526.83547	1012.90494	52.94857	-461.96811	1298.87879	349.37086	-194.27142	1204.48289	435.26057	-143.87869	1234.09686	322.02183	-147.48443	915.09457	458.74561	-531.31936	915.21440	339.26927	-544.86804	1241.62292	818.32572	-178.86018	1276.25444	711.95756	-191.84889	1253.51601	674.43557	-139.98560	1161.08341	782.18336	-108.64357	1197.54386	672.47154	-129.95947	1130.95070	775.14136	-515.24089	1101.97998	642.24929	-505.21853	1025.43175	794.04569	-550.83851	995.40205	659.76811	-529.63413	1150.33978	1052.77608	-187.17841	968.25876	1100.48898	-304.28341	1198.52353	1021.99871	-446.93204	983.90623	1096.41625	-401.07927	1100.44749	1539.75565	-542.23965	1136.49748	1563.49700	-334.85633	1179.24173	1396.08998	-652.87331	1217.58061	1467.34675	-456.48680	1218.29328	1443.20485	-498.52230	1110.87557	1442.65896	-194.86384	997.28134	1237.51569	-156.93001	1025.60066	1282.71534	-91.04185	1114.46246	1137.27228	-43.14691	1142.41272	1025.50584	0.56660	1116.13831	1029.13512	32.55382	1227.33306	1221.61588	-671.29195	1211.51322	1016.16071	-575.53639	1252.17133	1023.33619	-645.36049	1394.72626	967.82896	-572.60105	1481.64660	887.75277	-550.02136	1462.99818	856.99675	-583.04404	1066.12950	979.44917	-228.12019	1101.48274	947.21722	-436.07943	1078.63221	968.70184	-233.26365	1106.62151	961.41851	-406.40868	
124	1.23000000	1229.19627	568.63283	-171.71861	1284.63341	458.85329	-176.84315	1274.67262	111.98176	-205.93880	1235.63554	72.52592	-273.04940	1408.48886	61.87069	-133.39952	1452.09713	109.56975	-186.07392	986.72296	555.06472	-505.91048	1000.64545	445.15694	-494.26837	845.57459	122.95861	-486.01734	783.97751	98.71207	-431.75164	971.14627	33.81813	-527.03824	1012.87272	52.59347	-462.14297	1315.01584	350.19447	-196.12028	1218.36509	432.96258	-144.55452	1252.33813	321.00471	-148.06842	918.83399	459.73983	-531.63631	917.59935	340.16723	-545.42369	1250.62104	815.35739	-179.53288	1284.51860	708.72922	-193.12748	1261.48459	671.13937	-141.60028	1169.68054	779.24906	-109.77882	1205.46842	669.42973	-131.68401	1137.64760	774.45072	-515.77855	1107.55135	641.80387	-505.96198	1031.83511	794.38969	-550.87747	1000.95961	660.25347	-529.79779	1160.26129	1050.60765	-187.10897	978.07305	1099.10236	-303.63960	1207.85999	1020.93075	-447.31280	993.49178	1095.48799	-400.47321	1110.37926	1539.75726	-538.84598	1146.67994	1561.79202	-331.33151	1189.13059	1396.72729	-650.66541	1227.51410	1466.59134	-454.00141	1228.14426	1442.55601	-496.07935	1121.01116	1439.97722	-192.17993	1007.36258	1234.64556	-155.56419	1035.65324	1279.43558	-89.39096	1124.15814	1133.57459	-42.14611	1151.81311	1021.53403	1.02464	1125.47361	1024.99548	33.10011	1236.16859	1221.90769	-669.90356	1219.36126	1016.06054	-575.19312	1260.13696	1023.38928	-644.88657	1402.53233	967.87140	-571.72763	1489.56634	887.95199	-549.04462	1471.08950	857.22339	-582.21451	1075.90052	977.57738	-228.28018	1110.72164	946.26407	-436.46818	1088.35201	966.73046	-233.46922	1115.95845	960.26088	-406.84853	
125	1.24000000	1237.28366	565.94458	-173.34901	1296.73096	458.73473	-178.73574	1299.05478	111.33516	-205.76041	1260.18972	70.03386	-271.78068	1435.99050	66.69272	-135.37878	1476.75230	115.53917	-189.17056	991.52985	555.34580	-506.14707	1004.68861	445.30564	-494.92598	846.38401	124.36215	-486.55835	784.67542	100.79969	-432.13330	971.33415	33.71502	-527.24469	1012.87568	52.25078	-462.32806	1330.66949	351.09262	-197.85309	1231.88849	430.73040	-145.20244	1270.04957	320.15344	-148.70062	922.78001	460.70217	-531.97334	920.07981	341.00159	-546.02063	1259.61200	812.16144	-180.22655	1292.71686	705.26461	-194.34102	1269.37980	667.66191	-143.06106	1178.28388	776.22037	-110.82204	1213.33582	666.26422	-133.21472	1144.48040	773.75397	-516.38721	1113.31235	641.34102	-506.80410	1038.43777	794.69257	-550.80915	1006.68761	660.69115	-529.97732	1170.42693	1048.35096	-187.08179	988.05733	1097.65108	-302.92933	1217.35396	1019.81294	-447.77360	1003.20070	1094.50585	-399.80637	1120.34743	1539.80441	-535.19203	1156.98849	1559.97252	-327.53576	1199.13053	1397.46417	-648.28770	1237.56959	1465.81384	-451.30536	1238.08145	1441.90872	-493.45525	1131.23789	1437.12912	-189.30179	1017.57730	1231.57853	-154.11457	1045.81575	1275.94033	-87.62854	1133.99987	1129.67614	-41.09987	1161.39080	1017.34831	1.47585	1135.01751	1020.63622	33.62156	1244.98422	1222.23980	-668.42377	1226.96691	1015.94848	-574.87684	1267.87426	1023.45405	-644.41671	1410.02526	967.64684	-570.91863	1497.04412	887.72549	-548.19892	1478.67961	857.07201	-581.51844	1085.89724	975.62451	-228.45231	1120.08729	945.26829	-436.88556	1098.29881	964.67983	-233.69361	1125.43990	959.04443	-407.33059	
126	1.25000000	1245.45142	563.21902	-174.73213	1308.49420	458.52926	-180.38373	1322.72718	110.95779	-205.88690	1284.13036	67.92751	-270.84697	1462.63560	71.54675	-137.92327	1500.40175	121.60108	-192.57916	996.59294	555.59026	-506.42388	1009.00000	445.40950	-495.60827	847.29335	125.80024	-487.11123	785.42979	102.96884	-432.54543	971.54001	33.60029	-527.44802	1012.94719	51.94321	-462.52634	1345.84327	351.98697	-199.42146	1245.05381	428.55091	-145.83729	1287.11905	319.38569	-149.37525	926.96531	461.63030	-532.33425	922.71301	341.77959	-546.64713	1268.62775	808.79112	-180.95766	1300.94296	701.64574	-195.50664	1277.31536	664.06558	-144.36062	1186.97164	773.12806	-111.74591	1221.27101	663.02490	-134.52967	1151.47872	773.02867	-517.05378	1119.31037	640.84830	-507.71956	1045.30697	794.93882	-550.69648	1012.63709	661.07116	-530.17962	1180.82180	1046.02045	-187.10940	998.21076	1096.13040	-302.15777	1227.01321	1018.62213	-448.29281	1013.02613	1093.46040	-399.08058	1130.36854	1539.87938	-531.28191	1167.42692	1558.02534	-323.47556	1209.21338	1398.29162	-645.74415	1247.74622	1465.00072	-448.40221	1248.14497	1441.26106	-490.64294	1141.57625	1434.10472	-186.23078	1027.93626	1228.31252	-152.58381	1056.09415	1272.22629	-85.75465	1143.98741	1125.57182	-39.99943	1171.13359	1012.93474	1.93329	1144.76639	1016.07111	34.10797	1253.80241	1222.62851	-666.84786	1234.35913	1015.85593	-574.57412	1275.41074	1023.54494	-643.94675	1417.21856	967.15622	-570.16650	1504.08409	887.06829	-547.48025	1485.78020	856.54329	-580.94888	1096.11073	973.59848	-228.62526	1129.57932	944.21113	-437.31390	1108.47920	962.55343	-233.93105	1135.05994	957.76473	-407.83346	
127	1.26000000	1253.88241	560.52142	-175.91405	1320.04099	458.18859	-181.78355	1345.44494	110.72632	-206.29856	1307.23169	66.07739	-270.25811	1488.18260	76.16796	-140.95678	1522.86770	127.51907	-196.17145	1001.98144	555.80397	-506.76485	1013.55351	445.45087	-496.28202	848.31698	127.28083	-487.67016	786.25713	105.22936	-432.99565	971.76090	33.47746	-527.64244	1013.10205	51.67691	-462.73990	1360.55524	352.76472	-200.80506	1257.90080	426.41668	-146.48189	1303.46900	318.61473	-150.09128	931.43159	462.52748	-532.72195	925.57720	342.52817	-547.28204	1277.72875	805.33116	-181.74341	1309.30591	697.97965	-196.65741	1285.45657	660.44104	-145.51539	1195.86105	770.01484	-112.53063	1229.44811	659.77715	-135.62814	1158.67657	772.25857	-517.76326	1125.59008	640.31891	-508.68504	1052.47389	795.12058	-550.61503	1018.85597	661.38738	-530.40899	1191.42365	1043.63058	-187.19236	1008.53076	1094.53484	-301.33303	1236.83266	1017.34032	-448.83788	1022.96598	1092.34026	-398.30067	1140.48455	1539.95394	-527.11931	1177.99758	1555.93887	-319.15939	1219.36205	1399.20214	-643.03897	1258.04577	1464.13754	-445.29568	1258.37103	1440.60911	-487.63678	1152.04890	1430.89375	-182.97041	1038.44944	1224.84701	-150.96745	1066.49708	1268.29034	-83.77102	1154.12431	1121.25452	-38.83622	1181.04389	1008.28762	2.40785	1154.71343	1011.30122	34.56273	1262.64115	1223.08907	-665.17349	1241.55549	1015.82146	-574.27438	1282.77029	1023.68001	-643.47099	1424.12654	966.40630	-569.46421	1510.68225	885.97952	-546.88587	1492.39367	855.64127	-580.50407	1106.52431	971.50751	-228.78387	1139.19697	943.07461	-437.73092	1118.88616	960.35841	-234.16946	1144.81084	956.41839	-408.32741	
128	1.27000000	1262.80098	557.92113	-176.95059	1331.53934	457.65744	-182.97002	1366.91092	110.49312	-206.96396	1329.17154	64.33362	-269.99994	1512.28910	80.27756	-144.32900	1543.92965	132.98186	-199.81634	1007.74923	555.98349	-507.17774	1018.31982	445.41012	-496.91582	849.46196	128.81655	-488.23339	787.17074	107.59661	-433.48971	971.99297	33.35167	-527.82600	1013.33763	51.44491	-462.97166	1374.84107	353.28788	-202.02574	1270.52439	424.32822	-147.15966	1319.08278	317.75912	-150.85321	936.22243	463.39694	-533.14055	928.75148	343.28381	-547.90429	1287.00640	801.90098	-182.60384	1317.92973	694.39702	-197.84192	1294.01990	656.90977	-146.56826	1205.10650	766.93906	-113.16945	1238.08250	656.60194	-136.53228	1166.11177	771.43348	-518.49657	1132.18717	639.74872	-509.67757	1059.94802	795.23144	-550.61357	1025.38709	661.63457	-530.66629	1202.20303	1041.19146	-187.31973	1019.00818	1092.85822	-300.46451	1246.79534	1015.96371	-449.37024	1033.02498	1091.13341	-397.47534	1150.74807	1539.99519	-522.70559	1188.70360	1553.70239	-314.59628	1229.57407	1400.18769	-640.17512	1268.47083	1463.20878	-441.98820	1268.77923	1439.94406	-484.43475	1162.67475	1427.48413	-179.52698	1049.12557	1221.18070	-149.25650	1077.03542	1264.12698	-81.68277	1164.41922	1116.71904	-37.60324	1191.14045	1003.41196	2.90724	1164.85162	1006.31062	35.00374	1271.51075	1223.63143	-663.40004	1248.56054	1015.87770	-573.97438	1289.97156	1023.87670	-642.98437	1430.76301	965.40857	-568.80720	1516.83151	884.46222	-546.41441	1498.51726	854.37263	-580.18716	1117.11452	969.35654	-228.91453	1148.94111	941.84824	-438.11644	1129.49383	958.10568	-234.39938	1154.68934	955.00568	-408.78394	
